<svg width="34" height="34" viewBox="0 0 34 34" fill="none" xmlns="http://www.w3.org/2000/svg">
<circle cx="17" cy="17" r="17" fill="white"/>
<g clip-path="url(#clip0_399_56)">
<path d="M13.2358 8H10.9858C10.1902 8 9.42713 8.31607 8.86452 8.87868C8.30191 9.44129 7.98584 10.2044 7.98584 11L7.98584 13.25C7.98584 14.0456 8.30191 14.8087 8.86452 15.3713C9.42713 15.9339 10.1902 16.25 10.9858 16.25H13.2358C14.0315 16.25 14.7946 15.9339 15.3572 15.3713C15.9198 14.8087 16.2358 14.0456 16.2358 13.25V11C16.2358 10.2044 15.9198 9.44129 15.3572 8.87868C14.7946 8.31607 14.0315 8 13.2358 8ZM14.7358 13.25C14.7358 13.6478 14.5778 14.0294 14.2965 14.3107C14.0152 14.592 13.6337 14.75 13.2358 14.75H10.9858C10.588 14.75 10.2065 14.592 9.92518 14.3107C9.64388 14.0294 9.48584 13.6478 9.48584 13.25V11C9.48584 10.6022 9.64388 10.2206 9.92518 9.93934C10.2065 9.65804 10.588 9.5 10.9858 9.5H13.2358C13.6337 9.5 14.0152 9.65804 14.2965 9.93934C14.5778 10.2206 14.7358 10.6022 14.7358 11V13.25Z" fill="black"/>
<path d="M22.9858 8H20.7358C19.9402 8 19.1771 8.31607 18.6145 8.87868C18.0519 9.44129 17.7358 10.2044 17.7358 11V13.25C17.7358 14.0456 18.0519 14.8087 18.6145 15.3713C19.1771 15.9339 19.9402 16.25 20.7358 16.25H22.9858C23.7815 16.25 24.5446 15.9339 25.1072 15.3713C25.6698 14.8087 25.9858 14.0456 25.9858 13.25V11C25.9858 10.2044 25.6698 9.44129 25.1072 8.87868C24.5446 8.31607 23.7815 8 22.9858 8ZM24.4858 13.25C24.4858 13.6478 24.3278 14.0294 24.0465 14.3107C23.7652 14.592 23.3837 14.75 22.9858 14.75H20.7358C20.338 14.75 19.9565 14.592 19.6752 14.3107C19.3939 14.0294 19.2358 13.6478 19.2358 13.25V11C19.2358 10.6022 19.3939 10.2206 19.6752 9.93934C19.9565 9.65804 20.338 9.5 20.7358 9.5H22.9858C23.3837 9.5 23.7652 9.65804 24.0465 9.93934C24.3278 10.2206 24.4858 10.6022 24.4858 11V13.25Z" fill="black"/>
<path d="M13.2358 17.75H10.9858C10.1902 17.75 9.42713 18.0661 8.86452 18.6287C8.30191 19.1913 7.98584 19.9544 7.98584 20.75L7.98584 23C7.98584 23.7956 8.30191 24.5587 8.86452 25.1213C9.42713 25.6839 10.1902 26 10.9858 26H13.2358C14.0315 26 14.7946 25.6839 15.3572 25.1213C15.9198 24.5587 16.2358 23.7956 16.2358 23V20.75C16.2358 19.9544 15.9198 19.1913 15.3572 18.6287C14.7946 18.0661 14.0315 17.75 13.2358 17.75ZM14.7358 23C14.7358 23.3978 14.5778 23.7794 14.2965 24.0607C14.0152 24.342 13.6337 24.5 13.2358 24.5H10.9858C10.588 24.5 10.2065 24.342 9.92518 24.0607C9.64388 23.7794 9.48584 23.3978 9.48584 23V20.75C9.48584 20.3522 9.64388 19.9706 9.92518 19.6893C10.2065 19.408 10.588 19.25 10.9858 19.25H13.2358C13.6337 19.25 14.0152 19.408 14.2965 19.6893C14.5778 19.9706 14.7358 20.3522 14.7358 20.75V23Z" fill="black"/>
<path d="M22.9858 17.75H20.7358C19.9402 17.75 19.1771 18.0661 18.6145 18.6287C18.0519 19.1913 17.7358 19.9544 17.7358 20.75V23C17.7358 23.7956 18.0519 24.5587 18.6145 25.1213C19.1771 25.6839 19.9402 26 20.7358 26H22.9858C23.7815 26 24.5446 25.6839 25.1072 25.1213C25.6698 24.5587 25.9858 23.7956 25.9858 23V20.75C25.9858 19.9544 25.6698 19.1913 25.1072 18.6287C24.5446 18.0661 23.7815 17.75 22.9858 17.75ZM24.4858 23C24.4858 23.3978 24.3278 23.7794 24.0465 24.0607C23.7652 24.342 23.3837 24.5 22.9858 24.5H20.7358C20.338 24.5 19.9565 24.342 19.6752 24.0607C19.3939 23.7794 19.2358 23.3978 19.2358 23V20.75C19.2358 20.3522 19.3939 19.9706 19.6752 19.6893C19.9565 19.408 20.338 19.25 20.7358 19.25H22.9858C23.3837 19.25 23.7652 19.408 24.0465 19.6893C24.3278 19.9706 24.4858 20.3522 24.4858 20.75V23Z" fill="black"/>
</g>
<defs>
<clipPath id="clip0_399_56">
<rect width="18" height="18" fill="white" transform="translate(7.98584 8)"/>
</clipPath>
</defs>
</svg>
