<svg width="40" height="40" viewBox="0 0 40 40" fill="none" xmlns="http://www.w3.org/2000/svg">
<rect opacity="0.1" y="0.241211" width="40" height="39" rx="19.5" fill="#D9D9D9"/>
<g clip-path="url(#clip0_399_819)">
<path d="M30 20.3022C30 25.2931 26.3383 29.4306 21.5583 30.1814V23.2122H23.8825L24.325 20.3289H21.5583V18.4581C21.5583 17.6689 21.945 16.9006 23.1833 16.9006H24.4408V14.4456C24.4408 14.4456 23.2992 14.2506 22.2083 14.2506C19.93 14.2506 18.4417 15.6314 18.4417 18.1306V20.3281H15.9092V23.2114H18.4417V30.1806C13.6625 29.4289 10 25.2922 10 20.3022C10 14.7797 14.4775 10.3022 20 10.3022C25.5225 10.3022 30 14.7789 30 20.3022Z" fill="white"/>
</g>
<defs>
<clipPath id="clip0_399_819">
<rect width="20" height="20" fill="white" transform="translate(10 10.2412)"/>
</clipPath>
</defs>
</svg>
