<svg width="40" height="40" viewBox="0 0 40 40" fill="none" xmlns="http://www.w3.org/2000/svg">
<path opacity="0.1" d="M0 19.7412C0 8.97166 8.73045 0.241211 19.5 0.241211H20.5C31.2696 0.241211 40 8.97166 40 19.7412C40 30.5108 31.2696 39.2412 20.5 39.2412H19.5C8.73045 39.2412 0 30.5108 0 19.7412Z" fill="#D9D9D9"/>
<g clip-path="url(#clip0_399_825)">
<path d="M20 12.0429C22.67 12.0429 22.9867 12.0529 24.0408 12.1012C25.1308 12.1512 26.2533 12.3995 27.0475 13.1937C27.8492 13.9954 28.09 15.107 28.14 16.2004C28.1883 17.2545 28.1983 17.5712 28.1983 20.2412C28.1983 22.9112 28.1883 23.2279 28.14 24.282C28.0908 25.3662 27.8367 26.4995 27.0475 27.2887C26.2458 28.0904 25.135 28.3312 24.0408 28.3812C22.9867 28.4295 22.67 28.4395 20 28.4395C17.33 28.4395 17.0133 28.4295 15.9592 28.3812C14.8833 28.332 13.735 28.072 12.9525 27.2887C12.155 26.4912 11.91 25.3687 11.86 24.282C11.8117 23.2279 11.8017 22.9112 11.8017 20.2412C11.8017 17.5712 11.8117 17.2545 11.86 16.2004C11.9092 15.1204 12.1658 13.9804 12.9525 13.1937C13.7525 12.3937 14.8683 12.1512 15.9592 12.1012C17.0133 12.0529 17.33 12.0429 20 12.0429ZM20 10.2412C17.2842 10.2412 16.9433 10.2529 15.8767 10.3012C14.3308 10.372 12.7958 10.802 11.6783 11.9195C10.5567 13.0412 10.1308 14.5729 10.06 16.1179C10.0117 17.1845 10 17.5254 10 20.2412C10 22.957 10.0117 23.2979 10.06 24.3645C10.1308 25.9087 10.5625 27.4479 11.6783 28.5629C12.7992 29.6837 14.3333 30.1104 15.8767 30.1812C16.9433 30.2295 17.2842 30.2412 20 30.2412C22.7158 30.2412 23.0567 30.2295 24.1233 30.1812C25.6683 30.1104 27.205 29.6795 28.3217 28.5629C29.4442 27.4404 29.8692 25.9095 29.94 24.3645C29.9883 23.2979 30 22.957 30 20.2412C30 17.5254 29.9883 17.1845 29.94 16.1179C29.8692 14.572 29.4383 13.0362 28.3217 11.9195C27.2025 10.8004 25.6642 10.3712 24.1233 10.3012C23.0567 10.2529 22.7158 10.2412 20 10.2412Z" fill="white"/>
<path d="M20 15.1064C17.1642 15.1064 14.865 17.4056 14.865 20.2414C14.865 23.0773 17.1642 25.3764 20 25.3764C22.8358 25.3764 25.135 23.0773 25.135 20.2414C25.135 17.4056 22.8358 15.1064 20 15.1064ZM20 23.5748C18.1592 23.5748 16.6667 22.0823 16.6667 20.2414C16.6667 18.4006 18.1592 16.9081 20 16.9081C21.8408 16.9081 23.3333 18.4006 23.3333 20.2414C23.3333 22.0823 21.8408 23.5748 20 23.5748Z" fill="white"/>
<path d="M25.3383 16.1026C26.001 16.1026 26.5383 15.5654 26.5383 14.9026C26.5383 14.2399 26.001 13.7026 25.3383 13.7026C24.6756 13.7026 24.1383 14.2399 24.1383 14.9026C24.1383 15.5654 24.6756 16.1026 25.3383 16.1026Z" fill="white"/>
</g>
<defs>
<clipPath id="clip0_399_825">
<rect width="20" height="20" fill="white" transform="translate(10 10.2412)"/>
</clipPath>
</defs>
</svg>
