<svg width="1264" height="272" viewBox="0 0 1264 272" fill="none" xmlns="http://www.w3.org/2000/svg">
<path d="M75.1877 265V44.8619H125.203V265H75.1877ZM0.869028 51.9063V7.87866H199.522V51.9063H0.869028ZM352.691 271.692C329.444 271.692 309.25 267.583 292.109 259.364C275.202 251.146 261.114 240.462 249.842 227.312C238.806 213.928 230.47 199.604 224.835 184.341C219.434 168.844 216.734 153.933 216.734 139.609V131.86C216.734 116.128 219.551 100.513 225.187 85.0151C230.823 69.2825 239.276 55.0763 250.547 42.3963C262.053 29.7164 276.259 19.6193 293.166 12.1053C310.072 4.35644 329.914 0.482006 352.691 0.482006C375.233 0.482006 394.958 4.35644 411.864 12.1053C428.771 19.6193 442.86 29.7164 454.131 42.3963C465.637 55.0763 474.207 69.2825 479.843 85.0151C485.478 100.513 488.296 116.128 488.296 131.86V139.609C488.296 153.933 485.478 168.844 479.843 184.341C474.442 199.604 466.106 213.928 454.835 227.312C443.799 240.462 429.71 251.146 412.569 259.364C395.662 267.583 375.703 271.692 352.691 271.692ZM352.691 225.199C365.841 225.199 377.581 222.851 387.913 218.155C398.48 213.458 407.403 207.001 414.682 198.782C422.196 190.329 427.832 180.819 431.589 170.253C435.58 159.451 437.576 148.063 437.576 136.087C437.576 123.172 435.58 111.314 431.589 100.513C427.832 89.7113 422.196 80.3188 414.682 72.3351C407.403 64.3514 398.48 58.1289 387.913 53.6674C377.347 49.2059 365.606 46.9752 352.691 46.9752C339.541 46.9752 327.683 49.2059 317.117 53.6674C306.55 58.1289 297.51 64.3514 289.996 72.3351C282.716 80.3188 277.081 89.7113 273.089 100.513C269.332 111.314 267.454 123.172 267.454 136.087C267.454 148.063 269.332 159.451 273.089 170.253C277.081 180.819 282.716 190.329 289.996 198.782C297.51 207.001 306.55 213.458 317.117 218.155C327.683 222.851 339.541 225.199 352.691 225.199ZM703.233 265L609.19 144.893H572.912L684.566 7.87866H741.978L641.243 131.156L639.834 106.501L764.168 265H703.233ZM536.633 265V7.87866H586.648V265H536.633ZM834.975 166.73L757.487 7.87866H808.911L868.084 132.213L856.813 128.69H890.274L878.298 132.213L932.188 7.87866H980.795L909.294 166.73H834.975ZM847.655 265V158.981H896.614V265H847.655ZM1127.99 271.692C1104.74 271.692 1084.55 267.583 1067.41 259.364C1050.5 251.146 1036.41 240.462 1025.14 227.312C1014.11 213.928 1005.77 199.604 1000.13 184.341C994.733 168.844 992.033 153.933 992.033 139.609V131.86C992.033 116.128 994.85 100.513 1000.49 85.0151C1006.12 69.2825 1014.57 55.0763 1025.85 42.3963C1037.35 29.7164 1051.56 19.6193 1068.46 12.1053C1085.37 4.35644 1105.21 0.482006 1127.99 0.482006C1150.53 0.482006 1170.26 4.35644 1187.16 12.1053C1204.07 19.6193 1218.16 29.7164 1229.43 42.3963C1240.94 55.0763 1249.51 69.2825 1255.14 85.0151C1260.78 100.513 1263.6 116.128 1263.6 131.86V139.609C1263.6 153.933 1260.78 168.844 1255.14 184.341C1249.74 199.604 1241.41 213.928 1230.13 227.312C1219.1 240.462 1205.01 251.146 1187.87 259.364C1170.96 267.583 1151 271.692 1127.99 271.692ZM1127.99 225.199C1141.14 225.199 1152.88 222.851 1163.21 218.155C1173.78 213.458 1182.7 207.001 1189.98 198.782C1197.49 190.329 1203.13 180.819 1206.89 170.253C1210.88 159.451 1212.88 148.063 1212.88 136.087C1212.88 123.172 1210.88 111.314 1206.89 100.513C1203.13 89.7113 1197.49 80.3188 1189.98 72.3351C1182.7 64.3514 1173.78 58.1289 1163.21 53.6674C1152.65 49.2059 1140.9 46.9752 1127.99 46.9752C1114.84 46.9752 1102.98 49.2059 1092.42 53.6674C1081.85 58.1289 1072.81 64.3514 1065.29 72.3351C1058.02 80.3188 1052.38 89.7113 1048.39 100.513C1044.63 111.314 1042.75 123.172 1042.75 136.087C1042.75 148.063 1044.63 159.451 1048.39 170.253C1052.38 180.819 1058.02 190.329 1065.29 198.782C1072.81 207.001 1081.85 213.458 1092.42 218.155C1102.98 222.851 1114.84 225.199 1127.99 225.199Z" fill="url(#paint0_linear_399_867)"/>
<defs>
<linearGradient id="paint0_linear_399_867" x1="855" y1="-371.829" x2="800.063" y2="414.91" gradientUnits="userSpaceOnUse">
<stop stop-color="white"/>
<stop offset="1" stop-color="white" stop-opacity="0"/>
</linearGradient>
</defs>
</svg>
